<svg width="16" height="20" viewBox="0 0 16 20" fill="none" xmlns="http://www.w3.org/2000/svg">
<path d="M10.8871 0.115509C10.7954 0.018921 10.6697 -0.0390625 10.5394 -0.0390625H2.7374C1.29773 -0.0390625 0.109375 1.14456 0.109375 2.58408V17.3377C0.109375 18.7773 1.29773 19.961 2.7374 19.961H13.3267C14.7664 19.961 15.9547 18.7773 15.9547 17.3377V5.62272C15.9547 5.49714 15.8968 5.37644 15.8147 5.28459L10.8871 0.115509ZM11.0272 1.66626L14.3268 5.13001H12.1818C11.5442 5.13001 11.0272 4.61793 11.0272 3.98026V1.66626ZM13.3267 18.9948H2.7374C1.83408 18.9948 1.07556 18.246 1.07556 17.3377V2.58408C1.07556 1.68076 1.8292 0.927126 2.7374 0.927126H10.061V3.98026C10.061 5.15412 11.008 6.0962 12.1818 6.0962H14.9886V17.3377C14.9886 18.246 14.2349 18.9948 13.3267 18.9948Z" fill="#696969"/>
</svg>
